<svg xmlns="http://www.w3.org/2000/svg" xmlns:xlink="http://www.w3.org/1999/xlink" viewBox="0 0 579.69 241.24"><defs><style>.cls-1{fill:none;}.cls-2{isolation:isolate;}.cls-3{fill:#585858;}.cls-4{fill:#4f4f4f;}.cls-5{fill:#333;}.cls-6{fill:#373737;}.cls-7{clip-path:url(#clip-path);}.cls-8{fill:#3f3f3f;}.cls-9{fill:#414141;}.cls-10{fill:#434343;}.cls-11{fill:#454545;}.cls-12{fill:#474747;}.cls-13{fill:#494949;}.cls-14{fill:#4b4b4b;}.cls-15{fill:#4e4e4e;}.cls-16{fill:#505050;}.cls-17{fill:#525252;}.cls-18{fill:#3d3d3d;}.cls-19{fill:#3b3b3b;}.cls-20{fill:#393939;}.cls-21{clip-path:url(#clip-path-2);}.cls-22{fill:#353535;}.cls-23{clip-path:url(#clip-path-3);}</style><clipPath id="clip-path" transform="translate(-10.05 0)"><path class="cls-1" d="M306.75,184l-35.24-20.48q4.47,2.61,10.9-1.1a32.46,32.46,0,0,0,11.38-11.88q4.81-8.1,7.06-20.87l35.24,20.48Q333.86,163,329,171a32.3,32.3,0,0,1-11.38,11.88Q311.23,186.63,306.75,184Z"/></clipPath><clipPath id="clip-path-2" transform="translate(-10.05 0)"><path class="cls-1" d="M293.51,43.39l35.24,20.48a11.73,11.73,0,0,1,4.14,4.47q5.28,9.22,5.38,44.81.08,24.24-2.18,37l-35.24-20.48q2.25-12.76,2.18-37-.11-35.6-5.38-44.81A11.73,11.73,0,0,0,293.51,43.39Z"/></clipPath><clipPath id="clip-path-3" transform="translate(-10.05 0)"><path class="cls-1" d="M273.48,224.49,238.24,204a27.14,27.14,0,0,1-7.26-6.26q-5.65-6.65-8.83-21.95a181.82,181.82,0,0,1-3.23-36q-.15-51,15.76-80.52t48.57-48.43Q298.94,1.76,309,.39t16.47,2.08l.84.47,35.24,20.48-.84-.47q-6.37-3.45-16.47-2.09T318.49,31.3q-32.67,18.86-48.57,48.42t-15.76,80.53a181.89,181.89,0,0,0,3.23,36q3.18,15.32,8.83,21.95A27,27,0,0,0,273.48,224.49Z"/></clipPath></defs><title>Asset 6</title><g id="Layer_2" data-name="Layer 2"><g id="Layer_1-2" data-name="Layer 1"><g class="cls-2"><polygon class="cls-3" points="37.22 123.58 72.46 103.1 114.05 127.11 78.81 147.59 37.22 123.58"/><polygon class="cls-4" points="116.35 207.85 151.59 187.37 151.5 220.76 116.26 241.24 116.35 207.85"/><polygon class="cls-5" points="78.97 91.36 114.21 70.89 72.46 103.1 37.22 123.58 78.97 91.36"/><polygon class="cls-4" points="135.98 180.6 171.22 160.12 171.11 198.64 135.87 219.12 135.98 180.6"/><polygon class="cls-3" points="116.46 169.33 151.7 148.85 171.22 160.12 135.98 180.6 116.46 169.33"/><polygon class="cls-3" points="79.12 37.78 114.36 17.3 152.01 39.04 116.78 59.52 79.12 37.78"/><path class="cls-6" d="M126.51,169.33,146,180.6l-.11,38.52L126.4,207.85l-.09,33.39L88.65,219.5l.1-33.39-78.7-45.44.11-40.83,79-62.06,37.65,21.74ZM88.85,147.59,89,91.36,47.27,123.58l41.58,24" transform="translate(-10.05 0)"/><polygon class="cls-4" points="116.78 59.52 152.01 39.04 151.7 148.85 116.46 169.33 116.78 59.52"/></g><g class="cls-2"><g class="cls-2"><g class="cls-7"><g class="cls-2"><path class="cls-8" d="M306.75,184l-35.24-20.48.09.05,35.24,20.48-.09,0" transform="translate(-10.05 0)"/><path class="cls-9" d="M306.84,184.07,271.6,163.59a6.58,6.58,0,0,0,.84.42l35.24,20.48a6.58,6.58,0,0,1-.84-.42" transform="translate(-10.05 0)"/><path class="cls-10" d="M307.68,184.49,272.44,164a8.15,8.15,0,0,0,.83.29l35.24,20.48a8.15,8.15,0,0,1-.83-.29" transform="translate(-10.05 0)"/><path class="cls-11" d="M308.51,184.78,273.27,164.3a6,6,0,0,0,.84.19L309.35,185a7.86,7.86,0,0,1-.84-.19" transform="translate(-10.05 0)"/><path class="cls-12" d="M309.35,185l-35.24-20.48a8.46,8.46,0,0,0,.88.11l35.24,20.48a8.46,8.46,0,0,1-.88-.11" transform="translate(-10.05 0)"/><path class="cls-13" d="M310.23,185.08,275,164.6c.3,0,.62,0,.94,0l35.24,20.48c-.32,0-.64,0-.94,0" transform="translate(-10.05 0)"/><path class="cls-14" d="M311.17,185.09l-35.24-20.48a10,10,0,0,0,1.06-.11L312.23,185c-.36.05-.72.09-1.06.11" transform="translate(-10.05 0)"/><path class="cls-15" d="M312.23,185,277,164.5a12.74,12.74,0,0,0,1.28-.27l35.24,20.48a12.74,12.74,0,0,1-1.28.27" transform="translate(-10.05 0)"/><path class="cls-16" d="M313.51,184.71l-35.24-20.48a15.77,15.77,0,0,0,1.78-.62l35.24,20.48a15.77,15.77,0,0,1-1.78.62" transform="translate(-10.05 0)"/><path class="cls-17" d="M315.29,184.09l-35.24-20.48a22.4,22.4,0,0,0,2.36-1.17,27.66,27.66,0,0,0,5.54-4.27l35.24,20.48a27.24,27.24,0,0,1-5.54,4.26,20.76,20.76,0,0,1-2.36,1.18" transform="translate(-10.05 0)"/><path class="cls-16" d="M323.19,178.65,288,158.17c.57-.57,1.13-1.16,1.68-1.79l35.24,20.48c-.55.63-1.11,1.22-1.68,1.79" transform="translate(-10.05 0)"/><path class="cls-15" d="M324.87,176.86l-35.24-20.48c.43-.5.85-1,1.27-1.55l35.24,20.48c-.42.53-.84,1.05-1.27,1.55" transform="translate(-10.05 0)"/><path class="cls-14" d="M326.14,175.31,290.9,154.83l1.11-1.5,35.23,20.47c-.36.52-.73,1-1.1,1.51" transform="translate(-10.05 0)"/><path class="cls-13" d="M327.24,173.8,292,153.33c.34-.5.68-1,1-1.54l35.24,20.48c-.34.53-.68,1-1,1.53" transform="translate(-10.05 0)"/><path class="cls-12" d="M328.27,172.27,293,151.79c.26-.4.51-.81.76-1.23l.18-.3,35.24,20.48L329,171c-.25.43-.5.84-.76,1.24" transform="translate(-10.05 0)"/><path class="cls-11" d="M329.21,170.74,294,150.26c.26-.45.52-.92.77-1.39L330,169.35c-.25.47-.51.94-.77,1.39" transform="translate(-10.05 0)"/><path class="cls-10" d="M330,169.35l-35.24-20.48c.27-.5.53-1,.78-1.54l35.24,20.48c-.25.52-.51,1-.78,1.54" transform="translate(-10.05 0)"/><path class="cls-9" d="M330.76,167.81l-35.24-20.48c.28-.57.54-1.15.8-1.75l35.24,20.48c-.26.6-.52,1.18-.8,1.75" transform="translate(-10.05 0)"/><path class="cls-8" d="M331.56,166.06l-35.24-20.48c.29-.66.57-1.34.83-2L332.39,164c-.26.7-.54,1.38-.83,2" transform="translate(-10.05 0)"/><path class="cls-18" d="M332.39,164l-35.24-20.48c.32-.81.62-1.64.9-2.5l35.24,20.48c-.28.85-.58,1.69-.9,2.5" transform="translate(-10.05 0)"/><path class="cls-19" d="M333.29,161.52,298.05,141c.35-1.06.68-2.14,1-3.27l35.24,20.48c-.32,1.12-.65,2.21-1,3.27" transform="translate(-10.05 0)"/><path class="cls-20" d="M334.29,158.25l-35.24-20.48c.42-1.5.8-3.07,1.15-4.71l35.24,20.48c-.35,1.64-.73,3.2-1.15,4.71" transform="translate(-10.05 0)"/><path class="cls-6" d="M335.44,153.54,300.2,133.06c.23-1.09.45-2.22.65-3.37l35.24,20.48c-.2,1.15-.42,2.28-.65,3.37" transform="translate(-10.05 0)"/></g></g></g><g class="cls-2"><g class="cls-21"><g class="cls-2"><path class="cls-6" d="M336.09,150.17l-35.24-20.48c.24-1.32.45-2.74.65-4.24l35.23,20.48c-.19,1.5-.4,2.92-.64,4.24" transform="translate(-10.05 0)"/><path class="cls-22" d="M336.73,145.93,301.5,125.45q1.59-12.28,1.53-32.78-.11-35.6-5.38-44.81a11.73,11.73,0,0,0-4.14-4.47l35.24,20.48a11.73,11.73,0,0,1,4.14,4.47q5.28,9.22,5.38,44.81.06,20.47-1.54,32.78" transform="translate(-10.05 0)"/></g></g></g><g class="cls-2"><g class="cls-23"><g class="cls-2"><path class="cls-22" d="M273.48,224.49,238.24,204a27.14,27.14,0,0,1-7.26-6.26q-5.65-6.65-8.83-21.95a181.82,181.82,0,0,1-3.23-36,257,257,0,0,1,2-33.77l35.24,20.48a257,257,0,0,0-2,33.77,181.89,181.89,0,0,0,3.23,36q3.18,15.32,8.83,21.95a27,27,0,0,0,7.26,6.26" transform="translate(-10.05 0)"/><path class="cls-6" d="M256.11,126.48,220.87,106q1-7.6,2.47-14.56l35.24,20.47q-1.49,7-2.47,14.57" transform="translate(-10.05 0)"/><path class="cls-20" d="M258.58,111.91,223.34,91.44c.66-3.07,1.38-6,2.18-8.91L260.76,103c-.8,2.87-1.52,5.84-2.18,8.9" transform="translate(-10.05 0)"/><path class="cls-19" d="M260.76,103,225.52,82.53q.91-3.27,1.95-6.38l35.24,20.48q-1,3.11-1.95,6.38" transform="translate(-10.05 0)"/><path class="cls-18" d="M262.71,96.63,227.47,76.15c.58-1.73,1.18-3.43,1.82-5.09l35.24,20.48c-.64,1.66-1.24,3.36-1.82,5.09" transform="translate(-10.05 0)"/><path class="cls-8" d="M264.53,91.54,229.29,71.06c.56-1.45,1.14-2.88,1.74-4.27l35.24,20.48c-.6,1.39-1.18,2.82-1.74,4.27" transform="translate(-10.05 0)"/><path class="cls-9" d="M266.27,87.27,231,66.79c.56-1.27,1.13-2.53,1.72-3.75L268,83.52c-.59,1.22-1.16,2.47-1.72,3.75" transform="translate(-10.05 0)"/><path class="cls-10" d="M268,83.52,232.75,63c.55-1.15,1.13-2.28,1.72-3.39l35.24,20.48c-.59,1.11-1.17,2.24-1.72,3.39" transform="translate(-10.05 0)"/><path class="cls-11" d="M269.71,80.13,234.47,59.65l.21-.4c.62-1.16,1.26-2.3,1.92-3.43L271.84,76.3q-1,1.7-1.92,3.42l-.21.41" transform="translate(-10.05 0)"/><path class="cls-12" d="M271.84,76.3,236.6,55.82q1.16-2,2.39-3.91l35.24,20.48q-1.23,1.94-2.39,3.91" transform="translate(-10.05 0)"/><path class="cls-13" d="M274.23,72.39,239,51.91q1.31-2,2.7-4l35.24,20.47q-1.4,2-2.7,4" transform="translate(-10.05 0)"/><path class="cls-14" d="M276.93,68.36,241.69,47.89c1-1.49,2.11-2.94,3.23-4.38L280.16,64c-1.12,1.43-2.19,2.89-3.23,4.37" transform="translate(-10.05 0)"/><path class="cls-15" d="M280.16,64,244.92,43.51c1.31-1.7,2.69-3.37,4.11-5L284.27,59q-2.14,2.44-4.11,5" transform="translate(-10.05 0)"/><path class="cls-16" d="M284.27,59,249,38.51Q252,35.14,255.17,32l35.24,20.48q-3.21,3.18-6.14,6.55" transform="translate(-10.05 0)"/><path class="cls-17" d="M290.41,52.44,255.17,32a137.48,137.48,0,0,1,28.08-21.14A118.79,118.79,0,0,1,297,3.9l35.24,20.48a118.79,118.79,0,0,0-13.75,6.92,137.48,137.48,0,0,0-28.08,21.14" transform="translate(-10.05 0)"/><path class="cls-16" d="M332.24,24.38,297,3.9a60.22,60.22,0,0,1,7.33-2.54l35.24,20.48a60.22,60.22,0,0,0-7.33,2.54" transform="translate(-10.05 0)"/><path class="cls-15" d="M339.57,21.84,304.33,1.36a37.16,37.16,0,0,1,4.18-.9l35.24,20.48a37.16,37.16,0,0,0-4.18.9" transform="translate(-10.05 0)"/><path class="cls-14" d="M343.75,20.94,308.51.46,309,.39c1.33-.18,2.61-.3,3.85-.36l35.24,20.48c-1.24.06-2.52.17-3.85.35l-.53.08" transform="translate(-10.05 0)"/><path class="cls-13" d="M348.13,20.51,312.89,0a35.39,35.39,0,0,1,3.58,0l35.24,20.48a35.39,35.39,0,0,0-3.58,0" transform="translate(-10.05 0)"/><path class="cls-12" d="M351.71,20.54,316.47.06a28.4,28.4,0,0,1,2.88.34l35.24,20.48a25.8,25.8,0,0,0-2.88-.34" transform="translate(-10.05 0)"/><path class="cls-11" d="M354.59,20.88,319.35.4a20.5,20.5,0,0,1,2.43.56L357,21.44a20.5,20.5,0,0,0-2.43-.56" transform="translate(-10.05 0)"/><path class="cls-10" d="M357,21.44,321.78,1a19.41,19.41,0,0,1,2.11.74l35.24,20.48a19.41,19.41,0,0,0-2.11-.74" transform="translate(-10.05 0)"/><path class="cls-9" d="M359.13,22.18,323.89,1.7a17.22,17.22,0,0,1,1.62.77l.48.27,35.24,20.48-.48-.27a17.22,17.22,0,0,0-1.62-.77" transform="translate(-10.05 0)"/><path class="cls-8" d="M361.23,23.22,326,2.74l.36.2,35.24,20.48-.36-.2" transform="translate(-10.05 0)"/></g></g></g><path class="cls-4" d="M376.76,47.1a162.7,162.7,0,0,1,4.46,39.18q.13,48.63-14.11,79.43t-49.26,51q-19.62,11.32-31.73,11.12a25.28,25.28,0,0,1-19.9-9.63q-5.66-6.64-8.83-21.95a181.89,181.89,0,0,1-3.23-36q-.15-51,15.76-80.53T318.49,31.3q15.69-9.06,25.79-10.44T360.75,23a26.84,26.84,0,0,1,10.07,9.21A50,50,0,0,1,376.76,47.1ZM336.09,150.17q2.25-12.76,2.18-37-.11-35.59-5.38-44.81T317.1,65.18q-10.71,6.19-15.45,21.44t-4.64,49q.09,34.13,5.38,43.6t15.26,3.69A32.3,32.3,0,0,0,329,171q4.82-8.09,7.06-20.86" transform="translate(-10.05 0)"/></g><g class="cls-2"><polygon class="cls-3" points="445.7 123.58 480.94 103.11 522.52 127.11 487.28 147.59 445.7 123.58"/><polygon class="cls-4" points="524.83 207.85 560.07 187.37 559.97 220.76 524.73 241.24 524.83 207.85"/><polygon class="cls-5" points="487.44 91.37 522.68 70.89 480.94 103.11 445.7 123.58 487.44 91.37"/><polygon class="cls-4" points="544.45 180.6 579.69 160.12 579.58 198.64 544.34 219.12 544.45 180.6"/><polygon class="cls-3" points="524.94 169.33 560.17 148.85 579.69 160.12 544.45 180.6 524.94 169.33"/><polygon class="cls-3" points="487.59 37.78 522.83 17.3 560.49 39.04 525.25 59.52 487.59 37.78"/><path class="cls-6" d="M535,169.33,554.5,180.6l-.11,38.51-19.52-11.26-.09,33.39L497.12,219.5l.1-33.39-78.7-45.44.12-40.83,79-62.06L535.3,59.52Zm-37.65-21.74.16-56.22-41.75,32.21,41.59,24" transform="translate(-10.05 0)"/><polygon class="cls-4" points="525.25 59.52 560.49 39.04 560.17 148.85 524.94 169.33 525.25 59.52"/></g></g></g></svg>